<svg width="78" height="78" viewBox="0 0 78 78" fill="none" xmlns="http://www.w3.org/2000/svg">
<g clip-path="url(#clip0_124_691)">
<path fill-rule="evenodd" clip-rule="evenodd" d="M0 0H78V78H0V0Z" fill="white"/>
<path fill-rule="evenodd" clip-rule="evenodd" d="M64.896 64.896C72.0572 57.753 75.6352 49.1152 75.6227 39.0004C75.6352 28.8856 72.0572 20.247 64.896 13.104C57.753 5.94238 49.1144 2.36441 39 2.37735C28.8852 2.36441 20.2466 5.94278 13.104 13.104C5.94242 20.247 2.36404 28.8856 2.37699 39.0004C2.36404 49.1152 5.94242 57.753 13.104 64.896C20.2466 72.0572 28.8852 75.636 39 75.6226C49.1144 75.636 57.753 72.0572 64.896 64.896Z" fill="black"/>
<path fill-rule="evenodd" clip-rule="evenodd" d="M2.89648 39.0004C2.89648 19.0605 19.0601 2.89648 39 2.89648C58.9398 2.89648 75.1034 19.0601 75.1034 39.0004C75.1034 58.9398 58.9402 75.1042 39 75.1042C19.0601 75.1042 2.89648 58.9398 2.89648 39.0004Z" fill="white"/>
<path fill-rule="evenodd" clip-rule="evenodd" d="M4.86523 39.0004C4.86523 20.1482 20.1475 4.86597 38.9996 4.86597C57.8514 4.86597 73.134 20.1482 73.134 39.0004C73.134 57.8525 57.851 73.1348 38.9996 73.1348C20.1475 73.1344 4.86523 57.8525 4.86523 39.0004Z" fill="black"/>
<path fill-rule="evenodd" clip-rule="evenodd" d="M18.3906 39.0004C18.3906 27.6178 27.6176 18.3904 39.0006 18.3904C50.3836 18.3904 59.611 27.6178 59.611 39.0004C59.611 50.3829 50.3836 59.6103 39.0006 59.6103C27.618 59.6103 18.3906 50.3829 18.3906 39.0004Z" fill="white"/>
<path fill-rule="evenodd" clip-rule="evenodd" d="M39.1235 20.9248C29.1932 20.9248 21.1426 29.0175 21.1426 39.0004H39.1235V20.9248ZM39.3323 57.1311C49.3144 57.1311 57.4075 49.0387 57.4075 39.0559L57.4067 39.0004H39.2178V57.1311H39.3323Z" fill="#33348E"/>
<path fill-rule="evenodd" clip-rule="evenodd" d="M61.3236 15.7821L59.9647 13.8421L54.2918 21.0033L55.6171 22.8963L60.7591 21.3938L57.4951 25.5784L58.8268 27.4807L67.6034 24.7513L66.245 22.8113L60.6676 24.7039L64.2998 20.0338L63.2615 18.5503L57.5772 20.2907L61.3236 15.7821ZM33.6964 16.8325H35.9605L36.6921 11.7934L38.7239 16.8325H39.6295L41.7309 11.7934L42.3933 16.8325H44.6687L43.3447 8.07739H41.081L39.2002 12.7568L37.4233 8.07739H35.1823L33.6964 16.8325ZM22.5672 24.2463C23.9482 22.274 24.8045 19.9978 23.302 18.9453C22.3033 18.246 21.1484 18.4176 19.9345 19.8679C20.2311 18.7761 19.9284 18.0955 19.2817 17.6423C17.912 16.6832 16.5167 17.6232 15.1757 19.5389L12.373 23.5413L19.5448 28.5627L22.5672 24.2463Z" fill="white"/>
<path fill-rule="evenodd" clip-rule="evenodd" d="M18.5389 23.6834L18.7392 23.3977C19.3798 22.4827 20.2651 21.0365 21.1307 21.6423C21.9202 22.195 20.911 23.5757 20.3299 24.4049L20.0798 24.7622L18.5389 23.6834ZM15.7617 21.7386L15.9017 21.5383C16.4322 20.7808 17.0809 19.9358 17.7373 20.3951C18.3459 20.8216 17.891 21.6532 17.3706 22.3966L17.1505 22.711L15.7617 21.7386Z" fill="black"/>
</g>
<defs>
<clipPath id="clip0_124_691">
<rect width="78" height="78" fill="white"/>
</clipPath>
</defs>
</svg>
