<svg width="38" height="38" viewBox="0 0 38 38" fill="none" xmlns="http://www.w3.org/2000/svg">
<g clip-path="url(#clip0_86_6273)">
<path d="M38 19C38 26.6348 33.4606 33.5002 26.4353 36.4895C26.334 36.5322 26.2295 36.5528 26.125 36.5528C25.8178 36.5528 25.5249 36.3723 25.3967 36.0699C25.2257 35.6678 25.4125 35.2038 25.8147 35.0328C32.2541 32.2921 36.4167 25.9983 36.4167 19C36.4167 9.39708 28.6029 1.58333 19 1.58333C9.39708 1.58333 1.58333 9.39708 1.58333 19C1.58333 25.9983 5.74433 32.2921 12.1853 35.0328C12.5875 35.2038 12.7759 35.6678 12.6033 36.0699C12.4751 36.3708 12.1822 36.5528 11.875 36.5528C11.7721 36.5528 11.666 36.5322 11.5647 36.4895C4.53942 33.5002 0 26.6348 0 19C0 8.52308 8.52308 0 19 0C29.4769 0 38 8.52308 38 19ZM19 9.5C24.2393 9.5 28.5 13.7608 28.5 19C28.5 21.2135 27.721 23.37 26.3087 25.0705C26.0284 25.4062 26.0743 25.9049 26.41 26.1852C26.5588 26.3071 26.7378 26.3673 26.9151 26.3673C27.1431 26.3673 27.3679 26.2691 27.5247 26.0807C29.1745 24.0983 30.0833 21.5824 30.0833 18.9984C30.0833 12.8883 25.1117 7.91508 19 7.91508C12.8883 7.91508 7.91667 12.8883 7.91667 18.9984C7.91667 21.5824 8.8255 24.0983 10.4753 26.0807C10.6321 26.2691 10.8569 26.3673 11.0849 26.3673C11.2622 26.3673 11.4428 26.3071 11.59 26.1852C11.9257 25.9049 11.9716 25.4062 11.6913 25.0705C10.2774 23.37 9.5 21.2135 9.5 19C9.5 13.7608 13.7608 9.5 19 9.5ZM22.8649 26.7092C23.6028 27.5452 23.8972 28.7391 23.7183 30.1578L22.6623 35.0281C22.2854 36.7476 20.6736 38 19.0443 38C17.4151 38 15.7542 36.7492 15.3773 35.0297L14.3323 30.2274C14.1408 28.7391 14.4353 27.5468 15.1731 26.7092C15.9774 25.7973 17.2631 25.3333 18.9937 25.3333C20.7733 25.3333 22.059 25.7973 22.8633 26.7092H22.8649ZM21.6774 27.7558C21.185 27.1985 20.2999 26.9167 19.0428 26.9167C17.7381 26.9167 16.853 27.2001 16.3606 27.7558C15.9268 28.2498 15.7684 28.9893 15.8919 29.9598L16.9243 34.6908C17.1459 35.6978 18.0057 36.4056 19.019 36.4167C20.0339 36.4056 20.8937 35.6994 21.1138 34.6893L22.1572 29.8902C22.268 28.9908 22.1097 28.2498 21.6758 27.7558H21.6774ZM19 15.0417C21.1818 15.0417 22.9583 16.8166 22.9583 19C22.9583 21.1834 21.1818 22.9583 19 22.9583C16.8182 22.9583 15.0417 21.1834 15.0417 19C15.0417 16.8166 16.8182 15.0417 19 15.0417ZM19 16.625C17.6906 16.625 16.625 17.6906 16.625 19C16.625 20.3094 17.6906 21.375 19 21.375C20.3094 21.375 21.375 20.3094 21.375 19C21.375 17.6906 20.3094 16.625 19 16.625Z" fill="#3C23B5"/>
</g>
<defs>
<clipPath id="clip0_86_6273">
<rect width="38" height="38" fill="white"/>
</clipPath>
</defs>
</svg>
