<svg width="24" height="24" viewBox="0 0 24 24" fill="none" xmlns="http://www.w3.org/2000/svg">
<path d="M6.18173 12.2128C6.18173 11.5642 6.28946 10.9423 6.48173 10.359L3.11627 7.78906C2.46037 9.12081 2.09082 10.6214 2.09082 12.2128C2.09082 13.8028 2.45991 15.3025 3.11491 16.6333L6.47855 14.0583C6.28809 13.4778 6.18173 12.8582 6.18173 12.2128Z" fill="#FBBC05"/>
<path d="M12.0908 6.31167C13.4998 6.31167 14.7726 6.81096 15.7726 7.62798L18.6817 4.72302C16.9089 3.17975 14.6362 2.22656 12.0908 2.22656C8.13894 2.22656 4.74257 4.48653 3.11621 7.78866L6.48167 10.3586C7.25712 8.00472 9.46757 6.31167 12.0908 6.31167Z" fill="#EB4335"/>
<path d="M12.0908 18.1134C9.46757 18.1134 7.25712 16.4203 6.48167 14.0664L3.11621 16.6359C4.74257 19.9385 8.13894 22.1985 12.0908 22.1985C14.5298 22.1985 16.8585 21.3324 18.6062 19.7098L15.4117 17.2401C14.5103 17.8079 13.3753 18.1134 12.0908 18.1134Z" fill="#34A853"/>
<path d="M21.6363 12.2121C21.6363 11.622 21.5454 10.9866 21.409 10.3965H12.0908V14.2546H17.4545C17.1863 15.57 16.4563 16.5813 15.4117 17.2395L18.6063 19.7092C20.4422 18.0052 21.6363 15.467 21.6363 12.2121Z" fill="#4285F4"/>
</svg>
