<svg width="25" height="24" viewBox="0 0 25 24" fill="none" xmlns="http://www.w3.org/2000/svg">
<path d="M8.74681 19.9998C11.7342 20.0998 14.6351 18.9874 16.7897 16.9156C18.9443 14.8439 20.1696 11.9888 20.1868 8.9998C20.8645 8.16121 21.3677 7.19563 21.6668 6.1598C21.7124 5.99263 21.6557 5.81425 21.5219 5.70417C21.388 5.59408 21.202 5.5728 21.0468 5.6498C20.3199 5.99973 19.4507 5.84682 18.8868 5.2698C18.1776 4.49313 17.1841 4.03676 16.1328 4.00474C15.0815 3.97271 14.062 4.36775 13.3068 5.0998C12.2658 6.108 11.8293 7.58807 12.1568 8.9998C8.80681 9.1998 6.50681 7.6098 4.66681 5.4298C4.55386 5.30189 4.37596 5.25287 4.21344 5.30488C4.05091 5.35689 3.93452 5.50008 3.91681 5.6698C3.19893 9.65197 5.03368 13.6605 8.51681 15.7198C7.37645 17.0276 5.77502 17.8445 4.04681 17.9998C3.85699 18.0313 3.70819 18.18 3.67656 18.3698C3.64492 18.5596 3.73746 18.7485 3.90681 18.8398C5.41033 19.5912 7.06604 19.988 8.74681 19.9998Z" fill="#00AAEC"/>
</svg>
