<svg width="21" height="21" viewBox="0 0 21 21" fill="none" xmlns="http://www.w3.org/2000/svg">
<g clip-path="url(#clip0_87_302)">
<path d="M19.0312 0.492263H1.96875C1.58161 0.488323 1.20873 0.638122 0.931906 0.90879C0.655087 1.17946 0.496947 1.54889 0.492188 1.93601V19.0674C0.497808 19.454 0.656326 19.8226 0.933051 20.0925C1.20978 20.3625 1.58217 20.5118 1.96875 20.5079H19.0312C19.4184 20.511 19.791 20.3607 20.0677 20.0898C20.3444 19.819 20.5026 19.4496 20.5078 19.0625V1.93109C20.5009 1.5451 20.3419 1.17743 20.0654 0.908007C19.7889 0.638582 19.4173 0.489175 19.0312 0.492263Z" fill="#0076B2"/>
<path d="M3.45524 7.99512H6.42642V17.555H3.45524V7.99512ZM4.94165 3.2373C5.28243 3.2373 5.61555 3.33838 5.89888 3.52774C6.1822 3.7171 6.403 3.98624 6.53333 4.30111C6.66367 4.61598 6.69769 4.96243 6.63109 5.29664C6.56448 5.63085 6.40025 5.93779 6.15917 6.17864C5.91809 6.4195 5.61099 6.58343 5.27672 6.64972C4.94245 6.716 4.59603 6.68165 4.28128 6.55102C3.96654 6.42038 3.69761 6.19933 3.50852 5.91582C3.31943 5.63232 3.21867 5.2991 3.21899 4.95832C3.21943 4.50173 3.40112 4.06398 3.72413 3.74128C4.04714 3.41857 4.48506 3.2373 4.94165 3.2373ZM8.29017 7.99512H11.1383V9.30762H11.1777C11.5747 8.55621 12.5427 7.76379 13.9881 7.76379C16.997 7.75723 17.5548 9.73746 17.5548 12.305V17.555H14.5836V12.9039C14.5836 11.7964 14.5639 10.3707 13.0398 10.3707C11.5156 10.3707 11.2564 11.5782 11.2564 12.8317V17.555H8.29017V7.99512Z" fill="white"/>
</g>
<defs>
<clipPath id="clip0_87_302">
<rect width="21" height="21" fill="white"/>
</clipPath>
</defs>
</svg>
