<svg width="20" height="21" viewBox="0 0 20 21" fill="none" xmlns="http://www.w3.org/2000/svg">
<path d="M14.1667 3.2498C14.1667 3.01968 13.9801 2.83314 13.75 2.83314H11.6667C9.48276 2.72435 7.62106 4.39988 7.5 6.58314V8.83314H5.41667C5.18655 8.83314 5 9.01968 5 9.2498V11.4165C5 11.6466 5.18655 11.8331 5.41667 11.8331H7.5V17.4165C7.5 17.6466 7.68655 17.8331 7.91667 17.8331H10.4167C10.6468 17.8331 10.8333 17.6466 10.8333 17.4165V11.8331H13.0167C13.2073 11.8359 13.3755 11.7089 13.425 11.5248L14.025 9.35814C14.0586 9.23336 14.0324 9.10006 13.9541 8.99728C13.8758 8.89449 13.7542 8.83386 13.625 8.83314H10.8333V6.58314C10.8763 6.15572 11.2371 5.83098 11.6667 5.83314H13.75C13.9801 5.83314 14.1667 5.64659 14.1667 5.41647V3.2498Z" fill="#3C23B5"/>
</svg>
