<svg width="20" height="21" viewBox="0 0 20 21" fill="none" xmlns="http://www.w3.org/2000/svg">
<path d="M12.625 7.33304C11.335 7.32861 10.0963 7.83737 9.18181 8.74716C8.26733 9.65695 7.75221 10.8931 7.75 12.183V17.083C7.75 17.2819 7.82902 17.4727 7.96967 17.6134C8.11032 17.754 8.30109 17.833 8.5 17.833H10.25C10.6642 17.833 11 17.4972 11 17.083V12.183C10.9997 11.7236 11.1948 11.2857 11.5367 10.9788C11.8786 10.6719 12.3349 10.525 12.7917 10.5747C13.63 10.6803 14.2566 11.3965 14.25 12.2414V17.083C14.25 17.4972 14.5858 17.833 15 17.833H16.75C17.1642 17.833 17.5 17.4972 17.5 17.083V12.183C17.4978 10.8931 16.9827 9.65695 16.0682 8.74716C15.1537 7.83737 13.915 7.32861 12.625 7.33304Z" fill="#3C23B5"/>
<rect x="2.5" y="8.08301" width="3.75" height="9.75" rx="0.9" fill="#3C23B5"/>
<circle cx="4.375" cy="4.70801" r="1.875" fill="#3C23B5"/>
</svg>
