<svg width="20" height="21" viewBox="0 0 20 21" fill="none" xmlns="http://www.w3.org/2000/svg">
<path d="M6.73326 16.9997C9.22277 17.083 11.6402 16.156 13.4357 14.4295C15.2312 12.7031 16.2522 10.3239 16.2666 7.83301C16.8313 7.13418 17.2506 6.32953 17.4999 5.46634C17.5379 5.32703 17.4907 5.17838 17.3791 5.08664C17.2676 4.99491 17.1126 4.97717 16.9833 5.04134C16.3775 5.33295 15.6532 5.20552 15.1833 4.72467C14.5922 4.07745 13.7643 3.69714 12.8882 3.67045C12.0121 3.64376 11.1626 3.97296 10.5333 4.58301C9.66573 5.42317 9.30204 6.65657 9.57493 7.83301C6.78326 7.99967 4.8666 6.67467 3.33326 4.85801C3.23914 4.75141 3.09089 4.71056 2.95545 4.7539C2.82001 4.79724 2.72302 4.91657 2.70826 5.05801C2.11003 8.37647 3.63899 11.7169 6.5416 13.433C5.5913 14.5229 4.25677 15.2036 2.8166 15.333C2.65841 15.3592 2.53441 15.4831 2.50805 15.6413C2.48169 15.7995 2.55881 15.9569 2.69993 16.033C3.95286 16.6591 5.33262 16.9898 6.73326 16.9997Z" fill="#3C23B5"/>
</svg>
